<svg width="121" height="51" viewBox="0 0 121 51" fill="none" xmlns="http://www.w3.org/2000/svg">
<g opacity="0.999">
<path d="M81 34.209L75.6006 50H72.7295L67.3682 34.2676V43.5V47.4365H69.6533V50H60.8203V47.4365H63.0908V31.25H60.8203V28.6719H63.0908H68.6719L74.1064 44.3897H74.1943L79.6729 28.6719H87.5537V31.25H85.2686V47.4365H87.5537V50H78.7207V47.4365H80.9912L81 43V34.209Z" fill="#316B00"/>
<path d="M96.7822 50.3076C94.4971 50.3076 92.6709 49.5752 91.3037 48.1104C89.9365 46.6455 89.2529 44.7852 89.2529 42.5293V41.9434C89.2529 39.5898 89.8975 37.6514 91.1865 36.1279C92.4854 34.6045 94.2236 33.8477 96.4014 33.8574C98.54 33.8574 100.2 34.502 101.382 35.791C102.563 37.0801 103.154 38.8232 103.154 41.0205V43.3496L93.1457 43.3496C93.1457 43.3496 93.1278 43.6297 93.1457 43.8076C93.1656 44.0063 93.2229 44.3076 93.2229 44.3076C93.2229 44.3076 93.3397 44.7895 93.4629 45.0827C93.6802 45.5998 93.8533 45.914 94.2529 46.3076C95.1068 47.1486 97.2363 47.0264 97.2363 47.0264C97.2363 47.0264 98.7013 46.9968 99.5947 46.7481C100.439 46.5132 100.903 46.25 101.646 45.8398L102.803 48.4766C102.148 48.9941 101.299 49.4287 100.254 49.7803C99.2188 50.1318 98.0615 50.3076 96.7822 50.3076ZM96.7529 36.9076C95.7176 36.8377 95.0723 36.9883 94.2529 37.8076C93.7529 38.3076 93.2531 39.5361 93.1457 40.5225L93.7207 40.5225L99.6289 40.5999C99.6289 40.5999 99.636 40.2328 99.6289 39.9978C99.6218 39.7651 99.5929 39.4027 99.5929 39.4027C99.5929 39.4027 99.5665 39.0916 99.4529 38.8076C99.3393 38.5236 99.2915 38.4395 99.148 38.2276C99.0136 38.0291 98.7529 37.7576 98.7529 37.7576L98.4204 37.5276L98.0879 37.3376C98.0879 37.3376 97.68 37.1406 97.4869 37.0676C97.2697 36.9854 96.9846 36.9233 96.7529 36.9076Z" fill="#316B00"/>
<path d="M60.8203 22.4001V19.1189L63.0908 19.1482V3.65015H60.8203V1.07202H63.0908H67.3682H69.6533V3.65015H67.3682V19.1189H73.5938H76.8604V22.4001H60.8203Z" fill="#8040AC"/>
<path d="M87.9346 19.372H89.9854V9.79192H87.7148V6.77434H93.5C93.7749 6.35173 95 6 95.5 5.91231C96.2736 5.77662 97.1111 5.7 97.5 5.7C97.9786 5.7 98.6847 5.75054 99.4149 5.95C100.054 6.12454 100.481 6.28935 101 6.55C101.405 6.75359 102 7.2 102 7.2C102 7.2 102.389 7.48891 102.6 7.7238C103.164 8.35004 103.336 8.56434 103.55 9.2238C103.708 9.71086 103.72 10.5241 103.72 10.5241C103.72 10.5241 103.769 11.8261 103.799 12.7216V19.3427H105.85V22.6239H97.6758V19.372H99.5068V12.7363C99.5068 11.6718 99.292 10.9198 98.8623 10.4804C98.4326 10.0312 97.7832 9.80656 96.9141 9.80656C96.3477 9.80656 95.8398 9.92375 95.3906 10.1581C94.9414 10.3827 94.5654 10.705 94.2627 11.1249V19.372L95.9912 19.3427V22.6239H87.9346V19.372Z" fill="#8040AC"/>
<path d="M114.529 22.5C112.244 22.5 110.418 21.7676 109.051 20.3027C107.684 18.8379 107 16.9775 107 14.7217V14.1357C107 11.7822 107.645 9.84375 108.934 8.32031C110.232 6.79688 111.971 6.04004 114.148 6.0498C116.287 6.0498 117.947 6.69434 119.129 7.9834C120.311 9.27246 120.901 11.0156 120.901 13.2129V15.542H110.893C110.893 15.542 110.875 15.822 110.893 16C110.913 16.1987 110.97 16.5 110.97 16.5C110.97 16.5 111.087 16.9818 111.21 17.275C111.427 17.7922 111.6 18.1064 112 18.5C112.854 19.341 114.983 19.2188 114.983 19.2188C114.983 19.2188 116.448 19.1891 117.342 18.9404C118.186 18.7055 118.65 18.4424 119.393 18.0322L120.55 20.6689C119.896 21.1865 119.046 21.6211 118.001 21.9727C116.966 22.3242 115.809 22.5 114.529 22.5ZM114.5 9.1C113.465 9.03009 112.819 9.18064 112 10C111.5 10.5 111 11.7285 110.893 12.7148H111.468L117.376 12.7922C117.376 12.7922 117.383 12.4252 117.376 12.1902C117.369 11.9574 117.34 11.5951 117.34 11.5951C117.34 11.5951 117.314 11.284 117.2 11C117.086 10.716 117.039 10.6319 116.895 10.42C116.761 10.2214 116.5 9.95 116.5 9.95L116.167 9.72L115.835 9.53C115.835 9.53 115.427 9.33298 115.234 9.26C115.017 9.1778 114.732 9.11564 114.5 9.1Z" fill="#8040AC"/>
<path fill-rule="evenodd" clip-rule="evenodd" d="M80.4346 19.1482L78.3691 19.1189V22.4001H86.7627V19.1482H84.7119V6.55054H78.1494V9.58276L80.4346 9.56812V19.1482Z" fill="#8040AC"/>
<path d="M84.7119 4.28003H80.4346V1.07202H84.7119V4.28003Z" fill="#8040AC"/>
<path d="M21.9999 49V10.1904L22 8.5C22 8.40625 21.9767 8.18578 21.97 8C21.9662 7.89435 21.9559 7.79414 21.9419 7.65811L21.94 7.63974L21.91 7.43704L21.84 6.86835C21.8246 6.7857 21.8088 6.69851 21.79 6.60638C21.7355 6.33913 21.6692 6.03023 21.5818 5.66968L21.54 5.51809L21.44 5.15533C21.4056 5.04191 21.3513 4.84777 21.34 4.81848C21.2965 4.70555 21.2503 4.57846 21.19 4.41968L21.1 4.20984L21.0623 4.11108C21.0481 4.0754 21.0338 4.03841 21.02 4C20.9552 3.81991 20.8839 3.66216 20.81 3.5L20.63 3.15004C20.5477 2.99818 20.4836 2.83024 20.36 2.63039C20.3095 2.54874 20.1903 2.35942 19.97 2C19.6819 1.52992 19.2539 1 19.2539 1H45.9999C45.9999 1 51 0.999931 52.5 1.5C54 2.00007 55.2341 2.8121 56.5 4.5C58 6.5 58 10.1904 58 10.1904V49H45.9999V13H34V29.5V49H21.9999Z" fill="#8040AC"/>
<path d="M3 49.0001V20.5371C3 20.5371 5.5 22 9 22.0001C12.5 22.0001 15 20.5303 15 20.5303V49.0001H3Z" fill="#8040AC"/>
<path d="M9 0C11.3833 0.0183573 13.6658 0.963784 15.364 2.636C16.2097 3.46429 16.8792 4.45505 17.3322 5.5487C17.7852 6.64235 18.0123 7.81631 18 9C18 10.78 17.4722 12.5201 16.4832 14.0001C15.4943 15.4802 14.0887 16.6337 12.4442 17.3149C10.7996 17.9961 8.99002 18.1743 7.24419 17.8271C5.49836 17.4798 3.89472 16.6226 2.63604 15.364C1.37737 14.1053 0.520203 12.5016 0.172937 10.7558C-0.17433 9.00998 0.00389957 7.20038 0.685088 5.55585C1.36628 3.91131 2.51983 2.50571 3.99987 1.51677C5.47991 0.527841 7.21997 0 9 0V0Z" fill="#316B00"/>
</g>
</svg>
