<svg width="150" height="150" viewBox="0 0 150 150" fill="none" xmlns="http://www.w3.org/2000/svg">
<rect width="150" height="150" fill="#99B1EF"/>
<rect x="67" y="67" width="16" height="16" fill="black"/>
<rect x="53" y="53" width="16" height="16" fill="black"/>
<rect x="39" y="39" width="16" height="16" fill="black"/>
<rect x="67" y="83" width="16" height="16" transform="rotate(-90 67 83)" fill="black"/>
<rect x="53" y="97" width="16" height="16" transform="rotate(-90 53 97)" fill="black"/>
<rect x="39" y="111" width="16" height="16" transform="rotate(-90 39 111)" fill="black"/>
<rect x="83" y="83" width="16" height="16" transform="rotate(-180 83 83)" fill="black"/>
<rect x="97" y="97" width="16" height="16" transform="rotate(-180 97 97)" fill="black"/>
<rect x="111" y="111" width="16" height="16" transform="rotate(-180 111 111)" fill="black"/>
<rect x="83" y="67" width="16" height="16" transform="rotate(90 83 67)" fill="black"/>
<rect x="97" y="53" width="16" height="16" transform="rotate(90 97 53)" fill="black"/>
<rect x="111" y="39" width="16" height="16" transform="rotate(90 111 39)" fill="black"/>
</svg>
